<svg version="1.1" xmlns="http://www.w3.org/2000/svg" x="0" y="0" viewBox="0 0 512 512" xml:space="preserve">
  <path d="M508.7 246c-2.8-3.9-46.4-62.7-112.6-106.3L469.9 66c3.3-3.3 4.9-7.6 4.9-11.9s-1.7-8.6-4.9-11.9c-6.6-6.6-17.3-6.6-23.9 0l-79.9 79.9C333 104.8 295.7 92.8 256 92.8 116.8 92.8 7.8 239.8 3.3 246c-4.3 5.9-4.3 14 0 19.9 2.8 3.9 46.4 62.7 112.6 106.3L42.1 446c-3.3 3.3-4.9 7.6-4.9 11.9s1.6 8.6 4.9 11.9c6.6 6.6 17.3 6.6 23.9 0l79.9-79.9c33.1 17.3 70.4 29.2 110.1 29.2 139.2 0 248.2-147 252.7-153.2 4.4-5.9 4.4-13.9 0-19.9zM140.5 347.6c-49.2-31-86.5-72.8-102.1-91.7C64.6 224.1 153.3 126.6 256 126.6c29.8 0 58.5 8.3 84.8 20.8l-26.1 26.1c-16.6-11.8-36.8-18.8-58.7-18.8-55.8 0-101.3 45.4-101.3 101.3 0 21.8 7 42.1 18.8 58.6l-33 33zm173.6-125.9c6 10 9.4 21.8 9.4 34.3 0 37.2-30.3 67.5-67.5 67.5-12.5 0-24.2-3.4-34.3-9.4l92.4-92.4zm-116.3 68.6c-6-10-9.4-21.8-9.4-34.3 0-37.2 30.3-67.5 67.5-67.5 12.5 0 24.2 3.4 34.3 9.4l-92.4 92.4zm58.2 95.1c-29.8 0-58.5-8.3-84.8-20.8l26.1-26.1c16.6 11.8 36.8 18.8 58.7 18.8 55.8 0 101.3-45.4 101.3-101.3 0-21.8-7-42.1-18.8-58.7l33-33c49.2 31 86.5 72.8 102.1 91.7-26.2 31.9-114.8 129.4-217.6 129.4z"/>
</svg>