<?xml version="1.0" encoding="utf-8"?>
<!-- Generator: Adobe Illustrator 24.1.3, SVG Export Plug-In . SVG Version: 6.00 Build 0)  -->
<svg version="1.1" id="Layer_1" xmlns="http://www.w3.org/2000/svg" xmlns:xlink="http://www.w3.org/1999/xlink" x="0px" y="0px"
	 viewBox="0 0 84 84" style="enable-background:new 0 0 84 84;" xml:space="preserve">
<style type="text/css">
	.st0{fill:#832EAD;}
	.st1{fill:#FFFFFF;}
	.st2{fill:#505EAC;}
	.st3{fill:#FFE4EA;}
	.st4{fill:#FF9BB3;}
	.st5{fill:#FF416F;}
	.st6{fill:#4398B3;}
</style>
<g>
	<g id="dislike_1_">
		<g transform="matrix(1, 0, 0, 1, 0, 0)">
			<circle id="Ellipse_21-2_1_" class="st0" cx="-288.3" cy="37.8" r="42"/>
		</g>
		<path class="st1" d="M-267.8,49.1c2.5,2.6,2.5,6.7,0,9.3c-2.6,2.6-6.7,2.6-9.3,0l-10.8-10.8l-10.8,10.8c-2.6,2.6-6.7,2.6-9.3,0
			c-1.3-1.3-1.9-3-1.9-4.6c0-1.7,0.6-3.4,1.9-4.6l10.8-10.8l-10.8-10.8c-2.6-2.5-2.6-6.7,0-9.3c1.3-1.3,3-1.9,4.6-1.9
			s3.3,0.6,4.6,1.9l10.8,10.8l10.8-10.8c2.6-2.5,6.7-2.5,9.3,0c2.5,2.6,2.5,6.7,0,9.3l-10.8,10.8L-267.8,49.1z"/>
	</g>
</g>
<g>
	<g id="megalike">
		<g transform="matrix(1, 0, 0, 1, 0, 0)">
			<circle id="Ellipse_20-2" class="st2" cx="-195" cy="-75.6" r="42"/>
		</g>
		<path id="Union_5" class="st3" d="M-201.6-47.6L-201.6-47.6c-0.8,0.1-13.2-3.5-11.1-11c2-7.5,10.7-3,11.1,2c0.5-5,9.1-9.5,11.1-2
			C-188.5-51.1-200.5-47.6-201.6-47.6C-201.6-47.6-201.6-47.6-201.6-47.6z"/>
		<path id="Union_6" class="st4" d="M-178.6-62.8L-178.6-62.8c-1,0.1-16-4.2-13.5-13.2c2.5-9,13-3.6,13.6,2.4
			c0.6-6,11.1-11.4,13.6-2.3C-162.5-67-177.2-62.8-178.6-62.8C-178.5-62.8-178.5-62.8-178.6-62.8z"/>
		<path id="Union_7" class="st5" d="M-205.1-80.6L-205.1-80.6c-1.3,0.1-19.5-5.1-16.5-16.2c3-11,15.8-4.4,16.5,2.9
			c0.7-7.3,13.5-13.9,16.5-2.9C-185.6-85.7-203.5-80.6-205.1-80.6C-205.1-80.6-205.1-80.6-205.1-80.6z"/>
	</g>
</g>
<g>
	<g id="like_1_">
		<g transform="matrix(1, 0, 0, 1, 0, 0)">
			<circle id="Ellipse_22-2_1_" class="st6" cx="42" cy="42" r="42"/>
		</g>
		<path id="Union_8_1_" class="st1" d="M42.1,62.8L42.1,62.8c-2,0.1-31.7-8.4-26.7-26.8c4.9-18.3,25.7-7.3,26.8,4.8
			C43.3,28.6,64,17.7,68.9,36c4.9,18.3-24.2,26.8-26.7,26.8C42.2,62.8,42.1,62.8,42.1,62.8z"/>
	</g>
</g>
</svg>
