<svg id="Layer_1" data-name="Layer 1" xmlns="http://www.w3.org/2000/svg" viewBox="0 0 84 84"><defs><style>.cls-1{fill:#505eac;}.cls-2{fill:#ffe4ea;}.cls-3{fill:#ff9bb3;}.cls-4{fill:#ff416f;}</style></defs><g id="megalike"><circle id="Ellipse_20-2" data-name="Ellipse 20-2" class="cls-1" cx="42" cy="42" r="42"/><path id="Union_5" data-name="Union 5" class="cls-2" d="M35.32,70h0c-.85.06-13.16-3.45-11.1-11s10.66-3,11.12,2c.47-5,9.09-9.48,11.13-1.95s-10,11-11.08,11Z"/><path id="Union_6" data-name="Union 6" class="cls-3" d="M58.39,54.82h0c-1,.08-16-4.14-13.54-13.21S57.86,38,58.42,44C59,38,69.52,32.58,72,41.6S59.75,54.83,58.47,54.83A.12.12,0,0,1,58.39,54.82Z"/><path id="Union_7" data-name="Union 7" class="cls-4" d="M31.82,37v0c-1.26.1-19.52-5.06-16.48-16.14s15.83-4.39,16.51,2.87c.7-7.27,13.5-13.89,16.53-2.86S33.48,37,31.92,37A.16.16,0,0,1,31.82,37Z"/></g></svg>