<svg xmlns="http://www.w3.org/2000/svg" xmlns:xlink="http://www.w3.org/1999/xlink" width="84" height="84" viewBox="0 0 84 84">
  <defs>
    <filter id="Ellipse_20" x="-5.5" y="-5.5" width="111" height="111" filterUnits="userSpaceOnUse">
      <feOffset dx="8" dy="8" input="SourceAlpha"/>
      <feGaussianBlur stdDeviation="4.5" result="blur"/>
      <feFlood flood-opacity="0.549"/>
      <feComposite operator="in" in2="blur"/>
      <feComposite in="SourceGraphic"/>
    </filter>
    <clipPath id="clip-megalike">
      <rect width="84" height="84"/>
    </clipPath>
  </defs>
  <g id="megalike" clip-path="url(#clip-megalike)">
    <rect width="84" height="84" fill="#fff"/>
    <g transform="matrix(1, 0, 0, 1, 0, 0)" filter="url(#Ellipse_20)">
      <circle id="Ellipse_20-2" data-name="Ellipse 20" cx="42" cy="42" r="42" fill="#505eac"/>
    </g>
    <path id="Union_5" data-name="Union 5" d="M11.332,15.015V15c-.849.067-13.154-3.45-11.1-11.01,2.04-7.519,10.662-3,11.122,1.961C11.821.991,20.447-3.527,22.489,4,24.525,11.5,12.448,15.026,11.4,15.025A.137.137,0,0,1,11.332,15.015Z" transform="translate(23.986 54.986)" fill="#ffe4ea"/>
    <path id="Union_6" data-name="Union 6" d="M13.826,18.013V18C12.791,18.078-2.222,13.86.281,4.79c2.489-9.02,13.009-3.6,13.57,2.353.572-5.953,11.1-11.374,13.588-2.346,2.484,9-12.252,13.229-13.532,13.229A.169.169,0,0,1,13.826,18.013Z" transform="translate(44.566 36.808)" fill="#ff9bb3"/>
    <path id="Union_7" data-name="Union 7" d="M16.819,22.01v-.017C15.56,22.09-2.7,16.936.342,5.852,3.37-5.169,16.167,1.459,16.849,8.727c.7-7.274,13.5-13.9,16.529-2.866,3.021,11-14.9,16.165-16.461,16.164A.205.205,0,0,1,16.819,22.01Z" transform="translate(15 15.018)" fill="#ff416f"/>
  </g>
</svg>
